<svg xmlns="http://www.w3.org/2000/svg" xmlns:xlink="http://www.w3.org/1999/xlink" xml:space="preserve" version="1.1" style="shape-rendering:geometricPrecision;text-rendering:geometricPrecision;image-rendering:optimizeQuality;" viewBox="0 0 6055 7568.75" x="0px" y="0px" fill-rule="evenodd" clip-rule="evenodd"><defs><style type="text/css">

   
  </style></defs><g><path class="fil0" d="M3027 6055c278,0 506,-228 506,-506l0 -2016 2016 0c278,0 506,-228 506,-506 0,-277 -228,-505 -506,-505l-2016 0 0 -2016c0,-278 -228,-506 -506,-506 -277,0 -505,228 -505,506l0 2016 -2016 0c-278,0 -506,228 -506,505 0,278 228,506 506,506 672,0 1344,0 2016,0l0 2016c0,278 228,506 505,506z"/></g></svg>