<svg xmlns="http://www.w3.org/2000/svg" xmlns:xlink="http://www.w3.org/1999/xlink" version="1.1" x="0px" y="0px" viewBox="0 0 100 125" enable-background="new 0 0 100 100" xml:space="preserve"><path d="M86.3,15.5L73,5H27.3L13.9,15.5h-0.7L26.8,95h46.4l13.6-79.5H86.3z M28.2,7.7H72l6.7,5.2H21.5L28.2,7.7z M66.8,26.5  C65,34.1,58.2,39.8,50,39.8c-8.2,0-15-5.7-16.8-13.3c-0.5-2,1.1-4,3.1-4h0.2c1.5,0,2.8,1.1,3.1,2.6c1.1,4.6,5.4,8.1,10.3,8.1  c5,0,9.2-3.5,10.3-8.1c0.4-1.5,1.6-2.6,3.1-2.6h0.2C65.8,22.5,67.3,24.4,66.8,26.5z"/></svg>